<?xml version="1.0" encoding="UTF-8" standalone="no"?>
<svg
   xmlns:dc="http://purl.org/dc/elements/1.1/"
   xmlns:cc="http://creativecommons.org/ns#"
   xmlns:rdf="http://www.w3.org/1999/02/22-rdf-syntax-ns#"
   xmlns:svg="http://www.w3.org/2000/svg"
   xmlns="http://www.w3.org/2000/svg"
   xmlns:sodipodi="http://sodipodi.sourceforge.net/DTD/sodipodi-0.dtd"
   xmlns:inkscape="http://www.inkscape.org/namespaces/inkscape"
   width="40mm"
   height="40mm"
   viewBox="0 0 40 40"
   version="1.1"
   id="svg8"
   inkscape:version="1.0.1 (3bc2e813f5, 2020-09-07)"
   sodipodi:docname="deliver.svg">
  <defs
     id="defs2" />
  <sodipodi:namedview
     id="base"
     pagecolor="#ffffff"
     bordercolor="#666666"
     borderopacity="1.0"
     inkscape:pageopacity="0.0"
     inkscape:pageshadow="2"
     inkscape:zoom="0.98994949"
     inkscape:cx="141.57706"
     inkscape:cy="195.70885"
     inkscape:document-units="mm"
     inkscape:current-layer="layer1"
     inkscape:document-rotation="0"
     showgrid="false"
     inkscape:window-width="1431"
     inkscape:window-height="977"
     inkscape:window-x="224"
     inkscape:window-y="18"
     inkscape:window-maximized="0" />
  <metadata
     id="metadata5">
    <rdf:RDF>
      <cc:Work
         rdf:about="">
        <dc:format>image/svg+xml</dc:format>
        <dc:type
           rdf:resource="http://purl.org/dc/dcmitype/StillImage" />
        <dc:title></dc:title>
      </cc:Work>
    </rdf:RDF>
  </metadata>
  <g
     inkscape:label="Layer 1"
     inkscape:groupmode="layer"
     id="layer1">
    <path
       style="fill:#000000;stroke-width:0.591018"
       d="M 0.14440578,25.452195 C 0.09686248,17.45243 0.03202828,10.577356 3.055823e-4,10.174218 -0.03139002,9.771109 2.4066264,7.322162 5.4181303,4.732087 L 10.893594,0.022906 25.446797,0.011453 40,0 v 14.574318 14.57429 l -4.178642,5.41138 -4.178644,5.41138 -15.705931,0.01432 L 0.23084948,40 Z M 28.760903,24.543131 V 11.816232 H 15.792702 2.8245007 l -0.156517,12.043025 c -0.1100085,8.464003 0.042152,12.294728 0.5119914,12.889987 0.5422822,0.68708 3.0203232,0.816182 13.1247099,0.683874 l 12.45621,-0.163203 z M 9.6465803,16.624738 c -0.599837,-1.643646 0.9669037,-2.093969 6.7224867,-1.932199 5.042432,0.141729 5.475462,0.249671 5.475462,1.366002 0,1.122172 -0.439032,1.224903 -5.918044,1.384898 -5.044904,0.147455 -5.9714317,0.02577 -6.2799047,-0.818701 z M 34.956822,31.031502 37.118189,28.184341 V 17.121588 c 0,-6.084518 -0.204441,-11.062754 -0.454313,-11.062754 -0.249861,0 -1.41701,1.210988 -2.59364,2.691088 l -2.139327,2.691117 v 11.247887 c 0,6.186332 0.194529,11.234803 0.432273,11.218798 0.237743,-0.01718 1.404887,-1.310284 2.59364,-2.876222 z M 18.580537,5.907314 21.506964,3.028601 C 18.713943,2.8618262 11.92517,2.9824518 11.92517,2.9824518 c 0,0 -5.7947438,4.5758909 -5.9306637,5.6142892 0,0.386159 1.805492,0.536792 4.8298017,0.402966 L 15.65411,8.786113 Z M 32.449299,6.210326 35.07555,3.331642 30.587,3.154124 26.09845,2.976319 23.250478,5.483561 c -1.566387,1.378972 -2.702734,2.754336 -2.52522,3.056346 0.177511,0.30201 2.297138,0.549132 4.710271,0.549132 h 4.387519 z"
       id="path847"
       sodipodi:nodetypes="cccccccccccccccccccccccssccscssccscsccccccccccccsscc" />
  </g>
</svg>
