<?xml version="1.0" encoding="UTF-8" standalone="no"?>
<svg
   xmlns:dc="http://purl.org/dc/elements/1.1/"
   xmlns:cc="http://creativecommons.org/ns#"
   xmlns:rdf="http://www.w3.org/1999/02/22-rdf-syntax-ns#"
   xmlns:svg="http://www.w3.org/2000/svg"
   xmlns="http://www.w3.org/2000/svg"
   xmlns:sodipodi="http://sodipodi.sourceforge.net/DTD/sodipodi-0.dtd"
   xmlns:inkscape="http://www.inkscape.org/namespaces/inkscape"
   width="210mm"
   height="297mm"
   viewBox="0 0 210 297"
   version="1.1"
   id="svg8"
   inkscape:version="1.0.1 (3bc2e813f5, 2020-09-07)"
   sodipodi:docname="lock.svg">
  <defs
     id="defs2" />
  <sodipodi:namedview
     id="base"
     pagecolor="#ffffff"
     bordercolor="#666666"
     borderopacity="1.0"
     inkscape:pageopacity="0.0"
     inkscape:pageshadow="2"
     inkscape:zoom="0.38211943"
     inkscape:cx="-23.339184"
     inkscape:cy="399.69889"
     inkscape:document-units="mm"
     inkscape:current-layer="layer1"
     inkscape:document-rotation="0"
     showgrid="false"
     inkscape:window-width="1431"
     inkscape:window-height="977"
     inkscape:window-x="192"
     inkscape:window-y="18"
     inkscape:window-maximized="0" />
  <metadata
     id="metadata5">
    <rdf:RDF>
      <cc:Work
         rdf:about="">
        <dc:format>image/svg+xml</dc:format>
        <dc:type
           rdf:resource="http://purl.org/dc/dcmitype/StillImage" />
        <dc:title></dc:title>
      </cc:Work>
    </rdf:RDF>
  </metadata>
  <g
     inkscape:label="Layer 1"
     inkscape:groupmode="layer"
     id="layer1">
    <path
       style="fill:#000000;stroke-width:4.91746"
       d="M 1.2982823,185.16792 V 74.427555 H 17.962084 c 9.008554,0 18.755167,-0.87339 18.755167,-0.87339 0,0 -0.09399,-9.773527 1.043868,-15.83883 12.328998,-65.7192025 97.490751,-76.782755 128.738921,-16.724764 3.79991,7.303331 6.90894,17.68079 6.90894,23.061049 0,2.951823 0.59494,10.731201 0.59494,10.731201 0,0 8.79237,-0.17201 17.8455,0.57726 l 18.44043,1.526197 V 185.07013 293.254 L 105.79407,294.58115 1.2982823,295.90832 Z M 183.24389,185.07006 V 99.014802 H 104.56471 25.885524 v 86.055328 86.05535 h 78.679186 78.67918 z M 144.68305,73.987812 c 0,0 0.14828,-2.167311 -0.25279,-10.669689 0.2666,-9.003536 -6.1629,-38.751601 -42.93392,-38.065127 -29.174129,0.544649 -36.271226,27.102021 -36.271226,38.961322 0,2.472587 -0.298874,10.225818 -0.298874,10.225818 0,0 12.548858,-0.01266 39.34825,-0.01266 21.47717,0 40.40856,-0.439667 40.40856,-0.439667 z"
       id="path847"
       sodipodi:nodetypes="ccsccsscscccccccccccccccccsscsc" />
  </g>
</svg>
